<?xml version="1.0" encoding="UTF-8"?><svg id="Layer_1" xmlns="http://www.w3.org/2000/svg" viewBox="0 0 719.5 1020"><defs><style>.cls-1{fill:#fff;}</style></defs><path class="cls-1" d="M260.93,101.36c.04-.58,.08-1.19,.12-1.81-4.13-2.69-9.36-4.5-12.39-5.41,4.16,1.53,9.35,3.94,12.27,7.22Z"/><path class="cls-1" d="M282.54,77c1.42,9.94,1.52,17.87,1.21,23.51,1.19-2.35,2.55-4.78,3.96-6.78-.1-4.41-.47-9.56-1.31-15.44-2.91-20.36,8.8-55.82,8.95-56.29,.28-1.11-.1-2.09-.96-2.49-.6-.28-1.21-.55-2.85,.83-.01,.12,0,.24-.04,.37-.15,.47-11.86,35.93-8.95,56.29Z"/><path class="cls-1" d="M284.71,839.2c-9.13,16.88-15.16,25-19.48,26.11,.56,.66,1.18,1.09,1.87,1.3,3.45,1.02,8.12-3.53,15.04-14.87,1.39-5.59,3.13-11.43,5.24-17.51-.78,1.47-1.67,3.12-2.67,4.98Z"/><path class="cls-1" d="M696.41,654.53c2.3-25.85-29.08-43.62-47.84-54.26-4.7-2.66-8.75-4.96-11.15-6.75-39.53-28.62-49.28-60.88-55.74-82.22-.55-1.8-1.07-3.52-1.58-5.16-2.4-22.66-6.04-42.65-25.95-57.8-5.32-4.05-10.52-7.91-15.62-11.63-.79-.58-1.59-1.16-2.39-1.72-17.71-12.78-34.3-23.63-50.49-33.01-9.05-5.61-18.68-10.53-28.14-15.01-5-2.44-10-4.78-15.04-7-7.13-3.14-14.27-6.13-21.26-8.97-1.78-.75-3.57-1.47-5.36-2.16-8.42-3.36-16.52-6.47-23.97-9.29-.69-.26-1.72-.63-2.99-1.09-28.85-10.36-35.04-15.8-35.16-18.53-1.1-26.69-5.55-35.49-11.19-46.64-2.08-4.12-4.45-8.79-6.87-14.85-2-5-3.7-9.33-5.21-13.16-5.24-13.34-8.13-20.69-12.84-28.92-.99-1.73-2.44-4.79-4.18-8.76l-.03-.09c-.1-.26-.77-2.01-1.94-4.5-1.05-2.49-2.17-5.22-3.34-8.11-.09-.58-.32-1.13-.65-1.61-.34-.84-.68-1.69-1.02-2.56-.02-.12-.03-.24-.05-.37-.21-1.44-.73-2.6-1.47-3.5-8.62-22.12-18.31-49.85-20.07-61.27-1.92-12.47,5.13-32.84,8.92-43.79,2.65-7.67,2.93-8.48,1.5-9.28-.82-.46-1.67-.17-2.53,.87-.27,.32-.53,.67-.8,1.04-.36,1.31-1.02,3.22-2.02,6.1-3.79,10.95-10.83,31.32-8.92,43.79,2.23,14.48,17.21,55.18,26.59,77.42,1.17,2.49,1.84,4.24,1.94,4.5l.03,.09c1.74,3.97,3.19,7.03,4.18,8.76,4.7,8.23,7.59,15.58,12.84,28.92,1.51,3.83,3.21,8.16,5.21,13.16,2.43,6.06,4.79,10.73,6.87,14.85,5.64,11.15,10.09,19.95,11.19,46.64,.12,2.73,6.31,8.17,35.16,18.53,1.28,.46,2.3,.83,2.99,1.09,15.1,5.73,32.93,12.63,50.59,20.42,35.92,15.84,70.37,36.92,111.68,68.36,19.9,15.15,23.54,35.14,25.95,57.8,.51,1.63,1.03,3.35,1.58,5.16,6.45,21.34,16.21,53.6,55.74,82.22,2.39,1.8,6.45,4.09,11.15,6.75,18.76,10.63,50.14,28.41,47.84,54.26,1.8,10.97,2.15,25.54-10.82,41.4-.64,.86-1.27,1.79-1.87,2.69-3.23,4.81-6.28,9.36-17.04,9.79,1.63,13.17,4.12,41.38-34.56,50.57,.27,8.13,.41,52.66-27.48,77.76l-.17,.13c-20.29,13.53-57.21,22.7-100.89,8.86l.18,.08c45.28,15.57,83.7,6.25,104.56-7.65l.17-.13c27.6-24.84,27.75-68.73,27.49-77.5,1.72-.47,3.41-1.01,5.09-1.65,33.36-10.38,31.02-36.62,29.46-49.18,10.76-.43,13.82-4.98,17.04-9.79,.6-.9,1.23-1.83,1.87-2.69,12.98-15.86,12.63-30.44,10.82-41.4Z"/><path class="cls-1" d="M384.67,630.45c.3-.31,.6-.63,.9-.94-.03-.03-.06-.06-.09-.09-.27,.34-.55,.69-.81,1.03Z"/><path class="cls-1" d="M398.83,826.46c-1.92,2.63-3.93,5.12-5.87,7.54-10.03,12.47-19.51,24.26-14.7,52.26,8.92,18.07,16.64,64.42,6.01,111.53l-2.92-.66c10.51-46.57,2.9-92.2-5.86-109.73l-.14-.41c-5.13-29.49,4.79-41.81,15.28-54.86,1.97-2.45,4-4.98,5.93-7.63l.15-.2,.2-.14c29.94-20.96,72.8,1.77,98.41,15.35l1.81,.96c1.25,.43,2.5,.84,3.74,1.23l-1.7-.9c-1.4-.74-2.85-1.51-4.34-2.3,3.22,1.51,6.39,3,9.67,4.29,40.9,11.79,75.23,3.1,94.36-9.6,25.21-22.77,26.52-63.52,26.42-74.01-10.08,6.04-37.04,20.59-89.6,12.41-.54,.28-1.13,.61-1.79,.98-5.21,2.92-14.71,8.25-31.48,8.25-5.29,0-11.3-.53-18.14-1.83l-1.47-.28,.56-2.94,1.47,.28c27.43,5.22,40.55-2.13,47.6-6.09,.3-.17,.56-.31,.84-.47-6.26-4.33-26.62-19.96-24.64-38.93,1.64-15.63,18.12-29.26,48.99-40.53l.51,1.41c-30.28,11.06-46.44,24.27-48.01,39.28-1.95,18.62,19.59,34.52,24.65,37.98,.28-.14,.59-.19,.9-.14,54.31,8.58,80.73-7.47,89.4-12.75l.87-.53c.14-.08,.29-.14,.45-.18,38.38-8.53,34.84-36.61,33.33-48.6l-.08-.63h0c-1.02-8.11-4.22-11.89-8.64-17.13-1.82-2.15-3.88-4.58-6.05-7.63-2.26-3.17-2.58-5.39-2.19-6.9-5.73-4.85-8.61-12.35-12.05-18.83-2.06-3.87-4.19-7.71-6.4-11.49-.1-.17-.21-.35-.31-.52-.26-.31-.52-.63-.79-.94-.36,.09-.75,.12-1.12,.02-2.21-.61-4.62-1.87-5.17-4.32-.37-1.68,.39-3.58,1.8-4.58,.17-.54,.46-1.07,.92-1.56,.02-.02,.04-.03,.06-.05,.28-.47,.71-.84,1.28-.93,4.15-.64,5.53,4.07,7.04,7.04,.79,1.55,2.11,3.34,2.14,5.13,0,.53-.09,.99-.27,1.4,2.82,4.95,5.48,9.98,8.07,15.06,2.14,4.19,4.4,8.34,8.01,11.41,3.75-1.26,9.6,.09,11.67,2.08,3.4,2.83,5.24,4.16,9.3,3.41,4.24-.77,5.48-2.24,8.2-5.47l.75-.88c1.31-1.53,2.71-3,4.06-4.42,1.62-1.7,3.29-3.46,4.77-5.3,1.63-2.03,3.03-4.47,4.39-6.82l.46-.8c2.01-23.87-28.23-41.01-46.33-51.26-4.79-2.71-8.92-5.05-11.45-6.95-40.32-29.2-50.26-62.04-56.83-83.76-.56-1.84-1.09-3.6-1.61-5.27-.03-.1-.05-.19-.06-.29-2.33-22.02-5.8-41.43-24.8-55.88-41.12-31.29-75.38-52.27-111.08-68.01-17.6-7.76-35.37-14.65-50.44-20.36-.68-.26-1.69-.62-2.94-1.07-18.2-6.54-36.84-14.17-37.14-21.22-1.07-26.04-5.18-34.17-10.87-45.41-2.11-4.17-4.5-8.91-6.98-15.09-2-5.01-3.71-9.35-5.22-13.18-5.19-13.21-8.05-20.49-12.65-28.53-.98-1.71-2.47-4.87-4.3-9.03-.48-.73-9.2-13.69-19.01-12.97-5.93,.42-11.29,5.77-15.93,15.9l-.07,.13c-.59,1.02-1.15,2.03-1.73,3.05,3.92,2.07,15.29,8.9,26.28,23.25,12.43,16.23,26.94,45.7,25.52,93.95l-1.5-.04c1.41-47.76-12.9-76.89-25.15-92.92-10.91-14.28-22.17-20.98-25.9-22.94-33.18,59-44.89,115.06-34.76,166.69,4.58,22.9,13.78,46.72,25.24,65.34,8.71,14.16,4.42,35.22,1.58,49.15-1.01,4.96-1.97,9.65-1.57,11.08l-2.89,.8c-.56-2.04,.14-5.68,1.52-12.48,2.75-13.47,6.9-33.84-1.19-46.99-11.64-18.92-20.98-43.09-25.63-66.33-10.51-53.62,2.12-111.84,37.54-173.06,5.13-11.16,11.32-17.07,18.41-17.57,5.51-.39,10.52,2.57,14.34,5.9-3.85-6.66-9.76-14.34-16.77-14.8-6.46-.42-12.94,5.43-19.32,17.39l-.08,.13c-3.9,5.85-37.71,58.07-47.07,122.52,.02,.18,.03,.37,0,.56,.12,.52,.05,1.07-.31,1.59-.09,.63-.19,1.25-.27,1.88l-.25-.03c-2.05,6.86-5.94,13-9.18,19.36-3.97,7.8-6.53,16.21-7.71,24.87-.15,1.11-1.48,1.74-2.46,1.61-1.18-.16-1.83-1.08-1.95-2.2-.87-8.69-1.73-17.4-1.7-26.13,.02-7.64,.91-15.15,2.54-22.62,1.62-7.47,3.23-14.96,5.1-22.37,1.26-5.01,2.78-10.03,4.7-14.87-2.84,3.62-5.66,7.14-8.4,10.56-2.22,2.77-4.37,5.46-6.42,8.06-.01,.01-.02,.03-.03,.04h0c-.46,.62-2.47,3.37-5.58,7.75-1.96,3.15-3.99,6.02-6.09,8.66-1.14,1.64-2.34,3.38-3.6,5.21-1,1.03-2.02,2-3.05,2.94-22.67,33.34-60.96,93.5-68.15,129.45l-2.94-.59c6.82-34.1,40.05-88.05,63.06-122.43-2.67,1.86-5.43,3.57-8.3,5.15-9.86,5.76-20.96,9.99-33.56,14.79-3.3,1.26-6.7,2.55-10.2,3.92-7.68,3.04-14.7,6.36-21.14,9.86-4.16,2.34-8.07,4.75-11.73,7.2-2.99,1.81-5.89,3.77-8.64,6.03-.49,.4-.96,.84-1.44,1.25-13.06,10.17-22.28,20.41-28.45,28.59-.41,.42-.75,.89-1.05,1.4-6.58,8.97-9.34,15.12-9.41,15.29l-.59,1.37,.27,.12c-2.23,6.31-3.73,12.66-4.61,19.03-1.76,6.81-2.83,13.76-2.43,21,.88,15.88,4.17,31.96,8.04,47.35,3.23,12.84,6.29,28.15,14.99,38.58,.13,.15,.26,.3,.39,.45,1.5,2.47,3.65,4.14,6.01,5.02,2.57,1.36,5.45,1.88,8.45,.72,2.54-.98,4.4-3.01,5.45-5.49,.36-.86,.55-1.66,.63-2.43,.25-.9,.41-1.86,.47-2.91,.02-.41,.07-.81,.11-1.22,.27-.5,.53-1.01,.79-1.53,1.07,1.42,2.08,2.89,3.02,4.38,9.11,24.46,13.6,50.43,24.05,74.42,3.44,7.89,10.89,28.82,22.53,25.36,11.98-3.56,13.5-22.61,14.39-32.62,.01-.16,0-.3,0-.45,.43-1.08,.95-2.58,1.53-4.07,.15,.27,.29,.55,.44,.83,.55,9.03,3.51,18.2,7.25,27.04,.95,4.06,1.93,8.12,2.92,12.17,.84,5.15,1.71,10.29,2.82,15.34,1.82,8.31,4.46,16.37,7.85,24.09,2.64,7.81,5.79,15.41,9.82,22.6,.51,1.21,1.02,2.41,1.54,3.62,1.75,5.4,3.69,10.74,5.84,16.02,1.01,2.48,2.52,4.63,4.47,6.11,3.49,4.45,8.71,7.13,14.14,2.5,6.18-5.26,4.06-16.46,4.19-23.56,.19-10.42,.94-20.91,5.74-30.36,1.06-2.08,.83-4.34-.12-6.23,.33-.39,.66-.78,1-1.16,6.22,35.52,10.29,71.56,31.29,101.99,.08,.36,.26,.72,.58,1.05,3.41,3.49,7.38,6.47,11.71,8.71,2.15,1.11,4.4,2.05,6.69,2.83,1.45,.5,3.24,.98,4.49,2.01,.61-13.15,1.75-29.67,3.42-50.25,1.05-12.95,5.89-24.97,8.62-31.31-.37,.5-.78,1.04-1.21,1.61-1.53,2.05-3.53,4.72-6.07,8.08-12.97,17.12-15.7,17.73-17.23,16.96-2.69-1.34-.58-9.16,4.45-26.72,2.42-8.43,5.15-18,7.34-27.54,3.02-13.17,6.71-25.16,9.41-33.92,1.99-6.47,3.88-12.62,3.89-14.41-.86,.64-2.95,3.02-7.84,9.96-7.64,10.85-11.43,18.47-13.05,21.72-1.05,2.11-1.24,2.5-1.96,2.27-.72-.23-.67-.62-.29-3.17,.37-2.49,1.05-7.12,1.55-14.06,1.91-26.19,18.46-40.85,18.63-40.99l.98,1.13c-.16,.14-16.25,14.42-18.12,39.97-.42,5.73-.95,9.9-1.34,12.6,1.95-3.86,5.72-10.88,12.37-20.32,7.57-10.75,8.77-11.2,9.84-10.67,1.45,.71,.79,3.34-3.24,16.42-2.69,8.74-6.37,20.7-9.38,33.82-2.2,9.58-4.94,19.16-7.36,27.62-3.24,11.31-6.91,24.12-5.22,24.97,.62,.31,3.36-.68,15.37-16.53,2.54-3.35,4.54-6.02,6.07-8.07q4.6-6.15,5.34-5.71c.7,.41,.56,.73-.79,3.8-2.44,5.55-8.15,18.56-9.28,32.62-1.47,18.18-2.83,36.2-3.5,51.54,.7,.5,1.57,.64,2.41,.15,.01,0,.02-.02,.03-.02-1.13,24.45-.41,37.12,2.23,42.23,3.59-.15,9.98-8.72,19.05-25.48,2.93-5.42,4.89-9.15,6.1-11.46q1.89-3.61,2.58-3.29c.68,.31,.61,.5-.28,2.81-2.72,7.03-4.95,13.79-6.76,20.27,1.12-1.96,2.29-4.07,3.52-6.34,1-1.85,1.89-3.51,2.67-4.98-10.76,30.96-12.16,55.8-4,72.16,4.34,8.7,9.31,19.67,14.12,30.28,4.91,10.84,8.96,19.65,12.32,26.57,.48,1.5,.95,3.01,1.47,4.5,.69,1.96,1.85,3.72,3.31,4.9,1.23,2.25,2.33,4.12,3.32,5.61,.31,.58,.64,1.16,.99,1.72,.01,0,.02,0,.03,0,.65-.2,2.42-2.99-2.34-30.36l1.48-.26c4.43,25.48,3.54,30.81,1.66,31.88,.37,.53,.75,1.06,1.17,1.59,1.63,2.07,4.66,1.93,6.71,.53,1.88,1.56,3.92,2.91,6.08,4.07,3.41,6.89,7.62,13.4,12.57,19.4,1.45,1.76,4.92,1.31,5.88-.76,2.71-5.83,5.08-11.81,7.12-17.9,.58,2.23,1.2,4.45,1.9,6.64,2.07,6.57,5.16,13.17,4.32,20.22-.22,1.82,1.59,3.48,3.24,3.67,1.98,.24,3.4-.9,4.1-2.68,2.48-6.23,4.97-12.47,7.45-18.7,.41-.18,.81-.39,1.17-.67-.04,.16-.07,.32-.1,.48l2.92,.66c10.64-47.11,2.92-93.46-6.01-111.53-4.81-28,4.67-39.78,14.7-52.26,1.94-2.41,3.95-4.91,5.87-7.54,15.45-10.68,34.81-9.02,53.27-3.17-19.6-6.85-40.6-9.54-57.13,1.88ZM202.53,414.32c.04-.21,.07-.42,.11-.63,.12,.18,.24,.35,.37,.52-.16,.03-.32,.08-.47,.12Zm33.24,286.27s-.02-.08-.03-.12c.07,0,.13-.01,.2-.02-.06,.04-.11,.09-.16,.14Zm24.23,17.74c.05-.33,.1-.67,.16-1.01,.04-.01,.07-.02,.1-.04-.09,.35-.17,.7-.26,1.04Zm3.42,107.5c.04-.91,.07-1.83,.11-2.76,.01,.61,.02,1.22,.04,1.84-.04,.31-.1,.62-.15,.93Zm24.26,13.15c.65-1.23,1.31-2.45,1.97-3.67-.6,1.12-1.25,2.34-1.97,3.67Zm5.2,34.3c-.04,.48-.05,.98,0,1.52,.05,.61,.12,1.21,.17,1.82-.26-1.07-.29-2.19-.16-3.34Zm-4.29,33.72c-.6-1.2-1.13-2.47-1.62-3.78,1.83,4.1,3.86,8.14,5.71,12.2,.18,.4,.37,.81,.55,1.21-1.6-3.4-3.16-6.66-4.65-9.64Zm21.54,46.52c.14,.24,.3,.46,.47,.66,.09,.31,.18,.62,.26,.92-.24-.52-.49-1.05-.74-1.58Zm15.54-29.44c-.03-.19-.06-.38-.09-.57,.07,.08,.15,.15,.22,.23-.05,.11-.08,.22-.13,.34Zm31.08,60.93c.06-.3,.12-.59,.18-.89,.03,.02,.06,.03,.09,.05-.09,.28-.17,.56-.26,.84Zm12.2-333.68l-.66,.7-1.87-.59-.09-.96c-.02-.21-.04-.4,.45-1.21h0c.9-1.5,3.49-5.04,10.81-14.5,6.09-7.88,15.74-20.07,27.08-33.43,19.56-23.06,47.09-52.97,67.18-64.56,1.62-1.08,3.4-2.52,5.29-4.04,2.77-2.23,5.63-4.53,8.86-6.43,7.89-4.66,15.23-5.15,23.12-1.57,17.61,8,29.08,19.03,39.59,38.05l2.38,4.31-4.38-2.26c-2.74-1.41-6.15-3.01-10.1-4.86-9.76-4.57-22.84-10.71-34.65-18.44-.49-.17-.99-.35-1.49-.51-4.07-1.29-8.29-2.02-12.55-2.2-10.58,5.91-39.77,28.61-119,112.49Zm5.88,350.57c-.02-.07-.04-.14-.07-.21,.06-.02,.12-.05,.18-.07l-.11,.29Z"/><path class="cls-1" d="M677.37,695.67c.63-.93,1.27-1.9,2-2.87,11.51-14.07,11.71-27.18,10.81-35.06-.96,1.6-1.97,3.17-3.13,4.61-1.56,1.94-3.28,3.74-4.94,5.49-1.32,1.39-2.7,2.83-3.95,4.3l-.74,.87c-2.8,3.33-4.65,5.52-9.96,6.49-5.65,1.03-8.5-1.35-11.8-4.1l-.1-.09c-1.25-1.25-5.97-2.25-8.49-1.49-.11,.36-.29,.69-.53,.93-.29,.28-.61,.45-.94,.54-.08,1.3,1.12,3.19,1.76,4.08,2.1,2.94,4.12,5.33,5.9,7.43,4.35,5.14,7.83,9.26,9.13,17.35,9.45-.3,11.91-3.92,14.96-8.47Z"/><path class="cls-1" d="M248.88,176.72c.17-1.35,.37-2.87,.57-4.52-2.41-6.44-5.34-14.63-8.02-22.37-.26-.74-1.03-1.15-1.8-.96-.76,.2-1.23,.95-1.09,1.72,0,.05,.11,.6,.28,1.55,3.63,10.38,7.5,20.96,9.79,26.58,.08-.61,.16-1.28,.26-2.01Z"/><path class="cls-1" d="M519.13,533.6c-.06-.04-.12-.08-.18-.12,.04,.1,.08,.19,.13,.29,.02-.06,.03-.11,.05-.17Z"/><path class="cls-1" d="M517.09,540.82c1.29-3.28-2.02-8.56-3.58-10.56-1.8-.97-3.68-1.9-5.63-2.78-6.34-2.88-12.31-2.75-18.63,.47,6.4,6.05,14.36,11.4,22.46,16.06,2.93-.5,4.75-1.56,5.38-3.18Z"/><path class="cls-1" d="M497.77,843.43c-11.39-6.04-26.28-13.93-41.81-18.85,14.12,4.94,27.51,12.03,37.96,17.57l1.91,1.01,.21,.09c1.23,.42,2.45,.82,3.67,1.21h-.03l-1.91-1.03Z"/><path class="cls-1" d="M264.78,102.64c.05-.71,.1-1.47,.15-2.24,.96-14.71,3.2-49.17,14.27-64.68,6.84-9.57,10.34-13.7,12.32-15.38,.11-.95-.24-1.77-1-2.12-1.33-.61-2.7-1.25-15.17,16.22-11.08,15.51-13.32,49.96-14.27,64.68,0,.15-.02,.28-.03,.42,1.42,.93,2.72,1.96,3.74,3.1Z"/><path class="cls-1" d="M287.6,101.79c1.31-2.59,2.82-5.26,4.37-7.36,.6-2.18,.37-2.68-.52-3.18-.82-.46-1.67-.17-2.53,.87-.41,.49-.81,1.04-1.22,1.61,.07,3.05,.02,5.76-.1,8.06Z"/><path class="cls-1" d="M500.98,841.74c1.68,.58,3.34,1.1,5,1.61-.5-.18-.99-.39-1.48-.58-1.2-.35-2.41-.71-3.63-1.09l.11,.06Z"/><path class="cls-1" d="M252.74,178c1.96-15.29,6.55-51.08-.61-66.99-5.56-12.96-7.17-14.98-7.24-15.06-.48-.48-.54-1.18-.21-1.76,.33-.58,1.04-.85,1.69-.68,.34,.09,1.17,.3,2.29,.64-3-1.11-5.47-1.75-6.14-1.92-.65-.16-1.36,.1-1.69,.68-.33,.59-.26,1.29,.21,1.76,.07,.08,1.67,2.11,7.24,15.06,6.53,14.5,3.29,45.52,1.19,62.47,1.16,3.09,2.19,5.78,3.03,7.81,.08-.61,.16-1.28,.26-2.01Z"/><path class="cls-1" d="M127.01,372.43c11.46-4.37,21.65-8.25,30.77-13.28,3.02-1.76,5.92-3.66,8.71-5.76-.13,.2-.27,.41-.41,.61,2.78-1.94,5.46-4.07,8.03-6.43,.54-.8,1.09-1.6,1.61-2.37,1.73-1.79,3.4-3.73,5.04-5.79,2.32-3.33,4.37-6.25,6.09-8.66,1.43-2.3,2.83-4.73,4.2-7.33,2.02-2.56,4.14-5.21,6.32-7.93,3.6-4.49,7.33-9.16,11.07-13.98-.41,.93-.78,1.88-1.15,2.83,20.32-25.85,41.71-56.45,41.71-88.19,0-7.92-8.49-54.84-10.17-64.01-.42-1.2-.84-2.41-1.25-3.6-.26-.74-1.03-1.16-1.8-.96-.76,.2-1.23,.95-1.09,1.72,.1,.57,10.45,56.83,10.45,65.57,0,36.18-27.79,70.88-50.11,98.75-2.22,2.77-4.37,5.46-6.42,8.06-.01,.01-.02,.03-.03,.04h0c-.84,1.13-6.82,9.3-15.27,21.62-13.45,13.81-29.79,20.05-50.15,27.8-3.3,1.26-6.71,2.56-10.23,3.94-64.18,25.37-84.42,70.67-84.62,71.12l-.59,1.37,2.74,1.19,.6-1.37c.17-.39,15.48-34.51,61.83-59.67,7.19-4.05,15.13-7.89,23.9-11.36,3.52-1.38,6.93-2.68,10.23-3.94Z"/><path class="cls-1" d="M263.67,863.89c-4.42-1.31-5.03-18.57-3.99-42.28-.25-.18-.47-.4-.66-.65-.21-.28-.47-.53-.74-.75-1.48,31.66,.13,43.68,4.97,45.12,.62,.18,1.28,.17,1.98-.01-.31-.37-.61-.81-.88-1.34-.24,0-.46-.02-.67-.08Z"/><path class="cls-1" d="M313.91,968.08c-4.41-8.57-9.82-20.5-15.05-32.04-4.81-10.62-9.79-21.6-14.14-30.32-6.78-13.6-6.58-34.1,.32-58.89-1.01,1.77-1.97,3.39-2.9,4.91-5.68,22.87-5.31,41.5,1.24,54.65,4.34,8.7,9.31,19.67,14.12,30.28,14.34,31.64,21.32,46.07,25.28,46.07,.16,0,.31-.02,.46-.07,.12-.04,.24-.09,.36-.16-.29-.42-.57-.84-.83-1.27-.39,.08-2.34-.46-8.86-13.15Z"/><path class="cls-1" d="M320.71,951.11h0v0Z"/></svg>