<?xml version="1.0" standalone="no"?>
<!DOCTYPE svg PUBLIC "-//W3C//DTD SVG 20010904//EN"
 "http://www.w3.org/TR/2001/REC-SVG-20010904/DTD/svg10.dtd">
<svg version="1.0" xmlns="http://www.w3.org/2000/svg"
 width="1020.000000pt" height="1020.000000pt" viewBox="0 0 1020.000000 1020.000000"
 preserveAspectRatio="xMidYMid meet">
<metadata>
Created by potrace 1.14, written by Peter Selinger 2001-2017
</metadata>
<g transform="translate(0.000000,1020.000000) scale(0.100000,-0.100000)"
fill="#000000" stroke="none">
<path d="M4381 10023 c-98 -116 -166 -254 -187 -381 -2 -15 -9 -49 -14 -77 -8
-44 -16 -106 -25 -210 -2 -16 -3 -49 -4 -72 l-1 -42 -36 24 c-34 23 -134 65
-154 65 -16 0 -12 -13 32 -106 57 -123 68 -193 63 -399 -2 -93 -6 -181 -9
-195 -2 -14 -7 -52 -11 -85 -4 -33 -8 -61 -9 -63 -3 -2 -38 88 -83 212 -15 44
-34 81 -42 84 -17 6 -14 -17 29 -258 17 -96 32 -185 35 -196 50 -290 22 -435
-144 -739 -15 -27 -106 -166 -124 -190 -4 -5 -37 -48 -73 -95 -35 -47 -70 -92
-77 -100 -89 -112 -134 -172 -196 -259 -134 -188 -207 -238 -539 -366 -192
-74 -376 -163 -485 -234 -182 -119 -373 -315 -459 -471 -74 -135 -115 -384
-94 -571 9 -74 35 -216 57 -304 5 -22 12 -49 14 -60 25 -108 36 -146 61 -216
64 -177 156 -263 240 -223 34 16 64 65 64 105 0 70 65 -85 120 -286 123 -447
255 -725 344 -725 88 0 151 101 171 275 7 60 23 107 25 75 3 -33 12 -70 44
-170 19 -58 44 -154 56 -215 44 -226 90 -369 180 -561 21 -46 51 -117 65 -156
33 -93 68 -152 103 -175 45 -31 99 -20 133 28 19 28 22 46 24 188 4 162 16
237 55 322 18 41 20 42 21 17 1 -16 2 -31 3 -35 6 -27 16 -84 21 -118 4 -22
22 -117 41 -212 46 -234 96 -367 196 -530 61 -100 114 -143 231 -187 26 -10
47 -22 47 -27 0 -5 6 -9 14 -9 11 0 13 -31 13 -162 0 -209 17 -278 67 -278 37
0 100 78 180 222 20 38 39 68 41 68 1 0 -5 -22 -15 -49 -11 -26 -30 -102 -44
-167 -21 -99 -24 -140 -22 -244 4 -143 11 -168 90 -332 55 -115 108 -228 111
-238 1 -3 14 -32 29 -65 46 -98 72 -158 86 -195 22 -56 109 -180 128 -181 9
-1 23 -1 30 0 28 4 71 -35 111 -103 41 -70 94 -136 110 -136 20 0 42 33 72
109 l33 85 29 -90 c25 -78 33 -120 36 -185 1 -22 38 -31 55 -13 8 7 31 57 52
109 31 78 41 95 56 92 18 -5 23 4 33 63 3 19 8 42 10 50 2 8 7 47 11 85 3 39
8 81 10 95 6 41 5 311 -1 365 -19 170 -38 263 -79 385 -68 201 -40 371 88 535
17 22 35 46 41 53 81 106 150 136 320 136 175 0 278 -31 560 -169 136 -66 185
-87 241 -100 298 -71 541 -63 766 26 146 57 207 105 287 225 76 116 138 325
147 499 6 129 8 135 30 135 10 0 54 18 99 40 159 76 228 190 226 371 l-1 87
45 7 c54 8 90 41 165 154 73 110 85 157 83 323 -3 187 -25 240 -148 361 -48
47 -224 177 -239 177 -2 0 -45 24 -95 54 -338 197 -555 492 -666 906 -4 14 -9
45 -12 70 -8 74 -40 211 -63 272 -58 154 -148 241 -500 480 -424 288 -708 434
-1235 632 -256 96 -278 105 -350 143 -85 44 -92 54 -99 151 -6 80 -25 182 -44
247 -6 17 -35 84 -67 150 -32 66 -68 149 -82 185 -13 36 -28 74 -33 85 -5 11
-25 58 -44 105 -19 47 -50 118 -70 157 -100 202 -243 574 -312 813 -45 157
-37 245 45 499 23 68 38 127 35 132 -11 18 -25 8 -52 -34 l-27 -43 -4 91 c-7
149 -6 327 1 370 12 67 36 177 54 240 28 103 28 105 7 105 -11 0 -34 -17 -52
-37z m-836 -6763 c3 -5 1 -10 -4 -10 -6 0 -11 5 -11 10 0 6 2 10 4 10 3 0 8
-4 11 -10z"/>
</g>
</svg>
